<?xml version="1.0" encoding="UTF-8" standalone="no"?>
<svg
   xmlns:dc="http://purl.org/dc/elements/1.1/"
   xmlns:cc="http://creativecommons.org/ns#"
   xmlns:rdf="http://www.w3.org/1999/02/22-rdf-syntax-ns#"
   xmlns:svg="http://www.w3.org/2000/svg"
   xmlns="http://www.w3.org/2000/svg"
   id="svg9178"
   version="1.1"
   viewBox="0 0 7.1075001 9.0022202"
   height="9.0022202mm"
   width="7.1075001mm">
  <defs
     id="defs9172" />
  <metadata
     id="metadata9175">
    <rdf:RDF>
      <cc:Work
         rdf:about="">
        <dc:format>image/svg+xml</dc:format>
        <dc:type
           rdf:resource="http://purl.org/dc/dcmitype/StillImage" />
        <dc:title></dc:title>
      </cc:Work>
    </rdf:RDF>
  </metadata>
  <g
     transform="translate(-129.49386,-200.2727)"
     id="layer1">
    <path
       id="path8794"
       d="m 131.41376,201.2727 -0.0625,0.0176 c -0.42862,0.11445 -0.76254,0.49301 -0.8457,0.88281 l -0.0117,0.0508 v 5.12696 l 0.0215,0.0684 c 0.10425,0.35629 0.41541,0.7644 0.87695,0.84765 l 0.043,0.008 h 3.22266 l 0.041,-0.006 c 0.24829,-0.042 0.48616,-0.15143 0.65039,-0.33594 0.16423,-0.18452 0.2322,-0.41207 0.25,-0.60742 l 0.002,-0.0234 v -5.07031 l -0.008,-0.0449 c -0.0299,-0.16101 -0.0782,-0.36372 -0.23438,-0.55859 -0.1562,-0.19487 -0.42803,-0.33028 -0.70117,-0.35351 l -0.0215,-0.002 z m 3.16601,0.98047 c -0.002,-0.002 0.004,0.0174 0.004,0.0176 h -0.01 c 0.0701,0.006 0.0171,-0.004 0.006,-0.0176 z m -2.98632,0.0195 h 2.99218 c -2.2e-4,0.002 0.006,0.0293 0.0156,0.0645 v 4.92968 l 0.002,-0.0332 c -0.005,0.0549 -0.0119,0.0466 0,0.0332 3.2e-4,-3.4e-4 -0.002,3.2e-4 -0.002,0 0.005,-0.006 -0.0257,0.004 -0.0332,0.008 h -3.00586 c -0.0477,-0.007 -0.0511,-0.0375 -0.0684,-0.10547 v -4.79688 c 0.013,-0.0737 0.0225,-0.0802 0.0996,-0.0996 z"
       style="color:#000000;font-style:normal;font-variant:normal;font-weight:normal;font-stretch:normal;font-size:medium;line-height:normal;font-family:sans-serif;font-variant-ligatures:normal;font-variant-position:normal;font-variant-caps:normal;font-variant-numeric:normal;font-variant-alternates:normal;font-feature-settings:normal;text-indent:0;text-align:start;text-decoration:none;text-decoration-line:none;text-decoration-style:solid;text-decoration-color:#000000;letter-spacing:normal;word-spacing:normal;text-transform:none;writing-mode:lr-tb;direction:ltr;text-orientation:mixed;dominant-baseline:auto;baseline-shift:baseline;text-anchor:start;white-space:normal;shape-padding:0;clip-rule:nonzero;display:inline;overflow:visible;visibility:visible;opacity:1;isolation:auto;mix-blend-mode:normal;color-interpolation:sRGB;color-interpolation-filters:linearRGB;solid-color:#000000;solid-opacity:1;vector-effect:none;fill:#000000;fill-opacity:1;fill-rule:nonzero;stroke:none;stroke-width:1;stroke-linecap:butt;stroke-linejoin:miter;stroke-miterlimit:4;stroke-dasharray:none;stroke-dashoffset:0;stroke-opacity:1;color-rendering:auto;image-rendering:auto;shape-rendering:auto;text-rendering:auto;enable-background:accumulate" />
  </g>
</svg>
