<?xml version="1.0" encoding="UTF-8" standalone="no"?>
<svg
   xmlns:dc="http://purl.org/dc/elements/1.1/"
   xmlns:cc="http://creativecommons.org/ns#"
   xmlns:rdf="http://www.w3.org/1999/02/22-rdf-syntax-ns#"
   xmlns:svg="http://www.w3.org/2000/svg"
   xmlns="http://www.w3.org/2000/svg"
   id="svg18174"
   version="1.1"
   viewBox="0 0 6.5431299 9.1643496"
   height="9.1643496mm"
   width="6.5431299mm">
  <defs
     id="defs18168" />
  <metadata
     id="metadata18171">
    <rdf:RDF>
      <cc:Work
         rdf:about="">
        <dc:format>image/svg+xml</dc:format>
        <dc:type
           rdf:resource="http://purl.org/dc/dcmitype/StillImage" />
        <dc:title></dc:title>
      </cc:Work>
    </rdf:RDF>
  </metadata>
  <g
     transform="translate(-107.85343,-172.2214)"
     id="layer1">
    <path
       id="path8792"
       d="m 108.8535,173.22166 v 1.16407 h 0.58204 2.53124 c 0.14238,0.0137 0.19914,0.0459 0.21877,0.0625 0.0167,0.0141 0.0317,0.047 0.0469,0.10547 v 1.39062 c 0.006,0.009 0.0559,-0.035 -0.0606,0.0117 l 0.0371,-0.0137 -2.63477,0.86328 -0.0352,0.0156 c -0.0985,0.0472 -0.27349,0.12569 -0.43164,0.31055 -0.15815,0.18486 -0.24887,0.45795 -0.25391,0.72461 v 0.004 2.52539 h 3.96094 0.58204 v -1.16407 h -0.58204 -2.79492 v -1.33593 l 2.56836,-0.8418 0.0176,-0.008 c 0.31411,-0.12605 0.71787,-0.45563 0.78515,-0.93164 l 0.006,-0.0391 v -1.65625 l -0.01,-0.0547 c -0.0568,-0.29337 -0.20498,-0.59051 -0.44921,-0.79688 -0.24425,-0.20637 -0.5549,-0.30643 -0.87695,-0.33398 l -0.0234,-0.002 h -2.60156 z m 1.18946,4.65039 -0.0234,0.01 v -0.002 c 0.008,-0.004 -0.0127,0.009 0.0234,-0.008 z"
       style="color:#000000;font-style:normal;font-variant:normal;font-weight:normal;font-stretch:normal;font-size:medium;line-height:normal;font-family:sans-serif;font-variant-ligatures:normal;font-variant-position:normal;font-variant-caps:normal;font-variant-numeric:normal;font-variant-alternates:normal;font-feature-settings:normal;text-indent:0;text-align:start;text-decoration:none;text-decoration-line:none;text-decoration-style:solid;text-decoration-color:#000000;letter-spacing:normal;word-spacing:normal;text-transform:none;writing-mode:lr-tb;direction:ltr;text-orientation:mixed;dominant-baseline:auto;baseline-shift:baseline;text-anchor:start;white-space:normal;shape-padding:0;clip-rule:nonzero;display:inline;overflow:visible;visibility:visible;opacity:1;isolation:auto;mix-blend-mode:normal;color-interpolation:sRGB;color-interpolation-filters:linearRGB;solid-color:#000000;solid-opacity:1;vector-effect:none;fill:#000000;fill-opacity:1;fill-rule:nonzero;stroke:none;stroke-width:1.16499996;stroke-linecap:square;stroke-linejoin:miter;stroke-miterlimit:4;stroke-dasharray:none;stroke-dashoffset:0;stroke-opacity:1;color-rendering:auto;image-rendering:auto;shape-rendering:auto;text-rendering:auto;enable-background:accumulate" />
  </g>
</svg>
