<?xml version="1.0" encoding="UTF-8" standalone="no"?>
<svg
   xmlns:dc="http://purl.org/dc/elements/1.1/"
   xmlns:cc="http://creativecommons.org/ns#"
   xmlns:rdf="http://www.w3.org/1999/02/22-rdf-syntax-ns#"
   xmlns:svg="http://www.w3.org/2000/svg"
   xmlns="http://www.w3.org/2000/svg"
   id="svg22672"
   version="1.1"
   viewBox="0 0 6.4261298 9.0030203"
   height="9.0030203mm"
   width="6.4261298mm">
  <defs
     id="defs22666" />
  <metadata
     id="metadata22669">
    <rdf:RDF>
      <cc:Work
         rdf:about="">
        <dc:format>image/svg+xml</dc:format>
        <dc:type
           rdf:resource="http://purl.org/dc/dcmitype/StillImage" />
        <dc:title></dc:title>
      </cc:Work>
    </rdf:RDF>
  </metadata>
  <g
     transform="translate(-85.233354,-179.1055)"
     id="layer1">
    <path
       id="path8796"
       d="m 86.233357,180.10639 v 0.99995 h 0.500229 2.500104 c 0.165952,0.0262 0.273081,0.0726 0.324011,0.11523 0.0506,0.0424 0.08113,0.0886 0.101288,0.22891 v 1.04492 c -0.0392,0.10941 -0.08094,0.19706 -0.124542,0.23821 -0.0511,0.0482 -0.109686,0.0852 -0.281636,0.0992 H 87.458089 86.95786 v 1.00047 h 0.500229 1.751831 c 0.241239,0.0666 0.371067,0.14538 0.404627,0.18346 0.0365,0.0413 0.04384,0.0611 0.04444,0.16793 v 1.56424 c -0.01961,0.1637 -0.06092,0.23691 -0.09922,0.27337 -0.0389,0.037 -0.110238,0.0773 -0.283189,0.0863 h -2.542995 -0.500229 v 0.99994 h 0.500229 2.570385 0.01138 c 0.34798,-0.0151 0.685983,-0.12528 0.933794,-0.36121 0.247809,-0.23596 0.372782,-0.56402 0.408242,-0.90279 l 0.0021,-0.0269 v -1.63711 -0.003 c -0.0021,-0.25525 -0.07415,-0.57315 -0.295074,-0.82373 -0.0082,-0.009 -0.01892,-0.0164 -0.02739,-0.0254 0.148175,-0.1823 0.240856,-0.38733 0.300757,-0.586 l 0.0217,-0.0703 v -1.30688 l -0.0041,-0.0331 c -0.045,-0.35158 -0.210124,-0.67191 -0.457332,-0.87902 -0.2472,-0.20712 -0.541832,-0.29917 -0.833541,-0.34158 l -0.03566,-0.006 h -2.595708 z"
       style="color:#000000;font-style:normal;font-variant:normal;font-weight:normal;font-stretch:normal;font-size:medium;line-height:normal;font-family:sans-serif;font-variant-ligatures:normal;font-variant-position:normal;font-variant-caps:normal;font-variant-numeric:normal;font-variant-alternates:normal;font-feature-settings:normal;text-indent:0;text-align:start;text-decoration:none;text-decoration-line:none;text-decoration-style:solid;text-decoration-color:#000000;letter-spacing:normal;word-spacing:normal;text-transform:none;writing-mode:lr-tb;direction:ltr;text-orientation:mixed;dominant-baseline:auto;baseline-shift:baseline;text-anchor:start;white-space:normal;shape-padding:0;clip-rule:nonzero;display:inline;overflow:visible;visibility:visible;opacity:1;isolation:auto;mix-blend-mode:normal;color-interpolation:sRGB;color-interpolation-filters:linearRGB;solid-color:#000000;solid-opacity:1;vector-effect:none;fill:#000000;fill-opacity:1;fill-rule:nonzero;stroke:none;stroke-width:1;stroke-linecap:square;stroke-linejoin:miter;stroke-miterlimit:4;stroke-dasharray:none;stroke-dashoffset:0;stroke-opacity:1;color-rendering:auto;image-rendering:auto;shape-rendering:auto;text-rendering:auto;enable-background:accumulate" />
  </g>
</svg>
