<?xml version="1.0" encoding="UTF-8" standalone="no"?>
<svg
   xmlns:dc="http://purl.org/dc/elements/1.1/"
   xmlns:cc="http://creativecommons.org/ns#"
   xmlns:rdf="http://www.w3.org/1999/02/22-rdf-syntax-ns#"
   xmlns:svg="http://www.w3.org/2000/svg"
   xmlns="http://www.w3.org/2000/svg"
   id="svg36166"
   version="1.1"
   viewBox="0 0 6.9339099 9.0034256"
   height="9.0034256mm"
   width="6.9339099mm">
  <defs
     id="defs36160" />
  <metadata
     id="metadata36163">
    <rdf:RDF>
      <cc:Work
         rdf:about="">
        <dc:format>image/svg+xml</dc:format>
        <dc:type
           rdf:resource="http://purl.org/dc/dcmitype/StillImage" />
        <dc:title></dc:title>
      </cc:Work>
    </rdf:RDF>
  </metadata>
  <g
     transform="translate(-160.57478,-154.159)"
     id="layer1">
    <path
       id="path8806"
       d="m 162.98702,155.16009 -0.0899,0.0372 c -0.72781,0.29186 -1.26878,0.97893 -1.32034,1.90995 l -0.002,0.014 v 0.95496 0.99994 1.8242 l 0.006,0.0336 c 0.0478,0.36317 0.20978,0.70919 0.49402,0.93123 0.28425,0.22201 0.64338,0.30086 1.0139,0.29713 h 1.9606 l 0.0238,-0.003 c 0.29928,-0.0301 0.60777,-0.10829 0.87695,-0.3049 0.26918,-0.19659 0.46711,-0.51271 0.54674,-0.88056 l 0.0119,-0.0527 v -1.58181 l -0.004,-0.0336 c -0.0573,-0.41381 -0.27514,-0.76891 -0.56431,-0.96065 -0.28916,-0.19174 -0.59373,-0.23934 -0.86351,-0.26768 l -0.0274,-0.003 h -2.08721 c -0.0432,-1.9e-4 -0.0863,-0.003 -0.12919,0 h -0.25838 v -0.91413 c 0.0341,-0.61484 0.24874,-0.8236 0.67024,-1.002 h 2.76365 0.49971 V 155.159 h -0.49971 z m -0.11835,3.91603 h 2.11822 c 0.19641,0.0228 0.34049,0.0641 0.40049,0.10387 0.0595,0.0395 0.0935,0.0738 0.12093,0.25168 v 1.35186 c -0.0371,0.1479 -0.0824,0.21537 -0.14831,0.26355 -0.0691,0.0505 -0.19418,0.095 -0.37517,0.11523 h -1.90428 -0.004 c -0.22334,0.003 -0.33412,-0.0445 -0.38705,-0.0858 -0.0511,-0.0399 -0.0912,-0.10009 -0.11524,-0.26408 v -1.39423 c 0.0227,-0.20169 0.0704,-0.25595 0.11162,-0.28731 0.028,-0.0214 0.0854,-0.0451 0.18242,-0.0548 z"
       style="color:#000000;font-style:normal;font-variant:normal;font-weight:normal;font-stretch:normal;font-size:medium;line-height:normal;font-family:sans-serif;font-variant-ligatures:normal;font-variant-position:normal;font-variant-caps:normal;font-variant-numeric:normal;font-variant-alternates:normal;font-feature-settings:normal;text-indent:0;text-align:start;text-decoration:none;text-decoration-line:none;text-decoration-style:solid;text-decoration-color:#000000;letter-spacing:normal;word-spacing:normal;text-transform:none;writing-mode:lr-tb;direction:ltr;text-orientation:mixed;dominant-baseline:auto;baseline-shift:baseline;text-anchor:start;white-space:normal;shape-padding:0;clip-rule:nonzero;display:inline;overflow:visible;visibility:visible;opacity:1;isolation:auto;mix-blend-mode:normal;color-interpolation:sRGB;color-interpolation-filters:linearRGB;solid-color:#000000;solid-opacity:1;vector-effect:none;fill:#000000;fill-opacity:1;fill-rule:nonzero;stroke:none;stroke-width:1;stroke-linecap:square;stroke-linejoin:miter;stroke-miterlimit:4;stroke-dasharray:none;stroke-dashoffset:0;stroke-opacity:1;color-rendering:auto;image-rendering:auto;shape-rendering:auto;text-rendering:auto;enable-background:accumulate" />
  </g>
</svg>
