<?xml version="1.0" encoding="UTF-8" standalone="no"?>
<svg
   xmlns:dc="http://purl.org/dc/elements/1.1/"
   xmlns:cc="http://creativecommons.org/ns#"
   xmlns:rdf="http://www.w3.org/1999/02/22-rdf-syntax-ns#"
   xmlns:svg="http://www.w3.org/2000/svg"
   xmlns="http://www.w3.org/2000/svg"
   id="svg40664"
   version="1.1"
   viewBox="0 0 6.61729 9.0045624"
   height="9.0045624mm"
   width="6.61729mm">
  <defs
     id="defs40658" />
  <metadata
     id="metadata40661">
    <rdf:RDF>
      <cc:Work
         rdf:about="">
        <dc:format>image/svg+xml</dc:format>
        <dc:type
           rdf:resource="http://purl.org/dc/dcmitype/StillImage" />
        <dc:title></dc:title>
      </cc:Work>
    </rdf:RDF>
  </metadata>
  <g
     transform="translate(-112.44364,-200.78033)"
     id="layer1">
    <path
       id="path8814"
       d="m 114.97749,201.78034 -0.0238,0.002 c -0.41083,0.0378 -0.77783,0.19587 -1.03508,0.45527 -0.25725,0.2594 -0.39412,0.59172 -0.46457,0.92964 l -0.0104,0.0486 v 1.17618 l 0.0176,0.0661 c 0.0765,0.27418 0.21595,0.51466 0.39791,0.71 -0.1619,0.17474 -0.29699,0.39651 -0.38809,0.66509 l -0.0269,0.078 v 1.65624 l 0.0253,0.078 c 0.22239,0.66916 0.83417,1.10553 1.50792,1.13689 h 0.0114 1.38493 c 0.41984,0.0206 0.80457,-0.0843 1.09192,-0.30282 0.28736,-0.21857 0.45893,-0.52165 0.56638,-0.82632 l 0.0289,-0.0801 v -1.66605 l -0.0289,-0.0816 c -0.0866,-0.2417 -0.21615,-0.46681 -0.39223,-0.65112 0.17033,-0.18833 0.3067,-0.4218 0.39585,-0.69453 l 0.0253,-0.0765 v -1.18544 l -0.01,-0.0486 c -0.10004,-0.49897 -0.34453,-0.882 -0.66611,-1.09606 -0.32158,-0.21406 -0.65787,-0.25726 -0.92966,-0.28888 l -0.0274,-0.004 z m 0.062,0.99995 h 1.31671 c 0.22593,0.0276 0.38876,0.0667 0.47646,0.12504 0.0868,0.0577 0.16534,0.1532 0.22841,0.44133 v 0.85783 c -0.0746,0.20135 -0.15618,0.31729 -0.24598,0.37878 -0.0982,0.0672 -0.22972,0.10652 -0.42788,0.1111 h -1.36116 c -0.36739,-0.0209 -0.47178,-0.11174 -0.58187,-0.48835 v -0.8573 c 0.0445,-0.19457 0.10804,-0.32806 0.18551,-0.40619 0.0804,-0.0811 0.18561,-0.14025 0.4098,-0.16224 z m -0.006,2.91402 h 1.37098 0.002 0.004 c 0.21988,-0.003 0.34471,0.0433 0.4377,0.10956 0.0824,0.0587 0.15077,0.1678 0.2129,0.31626 v 1.24436 c -0.0609,0.15031 -0.12783,0.26434 -0.20153,0.32041 -0.0836,0.0636 -0.19214,0.10967 -0.43719,0.0977 h -0.0119 -1.38647 c -0.3579,-0.0167 -0.46467,-0.10758 -0.58033,-0.43358 v -1.23454 c 0.0742,-0.18831 0.14642,-0.28729 0.21497,-0.3302 0.0771,-0.0483 0.19225,-0.0771 0.37466,-0.0899 z"
       style="color:#000000;font-style:normal;font-variant:normal;font-weight:normal;font-stretch:normal;font-size:medium;line-height:normal;font-family:sans-serif;font-variant-ligatures:normal;font-variant-position:normal;font-variant-caps:normal;font-variant-numeric:normal;font-variant-alternates:normal;font-feature-settings:normal;text-indent:0;text-align:start;text-decoration:none;text-decoration-line:none;text-decoration-style:solid;text-decoration-color:#000000;letter-spacing:normal;word-spacing:normal;text-transform:none;writing-mode:lr-tb;direction:ltr;text-orientation:mixed;dominant-baseline:auto;baseline-shift:baseline;text-anchor:start;white-space:normal;shape-padding:0;clip-rule:nonzero;display:inline;overflow:visible;visibility:visible;opacity:1;isolation:auto;mix-blend-mode:normal;color-interpolation:sRGB;color-interpolation-filters:linearRGB;solid-color:#000000;solid-opacity:1;vector-effect:none;fill:#000000;fill-opacity:1;fill-rule:nonzero;stroke:none;stroke-width:1;stroke-linecap:butt;stroke-linejoin:miter;stroke-miterlimit:4;stroke-dasharray:none;stroke-dashoffset:0;stroke-opacity:1;color-rendering:auto;image-rendering:auto;shape-rendering:auto;text-rendering:auto;enable-background:accumulate" />
  </g>
</svg>
